<svg width="1em" height="1em" viewBox="0 0 16 16" fill="currentColor" xmlns="http://www.w3.org/2000/svg" data-icon="sui:trash" aria-hidden="true">
<path fill-rule="evenodd" clip-rule="evenodd" d="M6.50002 6.99992C6.77616 6.99992 7.00002 7.22378 7.00002 7.49992V10.9999C7.00002 11.2761 6.77616 11.4999 6.50002 11.4999C6.22388 11.4999 6.00002 11.2761 6.00002 10.9999V7.49992C6.00002 7.22378 6.22388 6.99992 6.50002 6.99992Z"></path>
<path fill-rule="evenodd" clip-rule="evenodd" d="M9.50002 6.99992C9.77616 6.99992 10 7.22378 10 7.49992V10.9999C10 11.2761 9.77616 11.4999 9.50002 11.4999C9.22388 11.4999 9.00002 11.2761 9.00002 10.9999V7.49992C9.00002 7.22378 9.22388 6.99992 9.50002 6.99992Z"></path>
<path fill-rule="evenodd" clip-rule="evenodd" d="M6.50002 6.99992C6.77616 6.99992 7.00002 7.22378 7.00002 7.49992V10.9999C7.00002 11.2761 6.77616 11.4999 6.50002 11.4999C6.22388 11.4999 6.00002 11.2761 6.00002 10.9999V7.49992C6.00002 7.22378 6.22388 6.99992 6.50002 6.99992ZM9.50002 6.99992C9.77616 6.99992 10 7.22378 10 7.49992V10.9999C10 11.2761 9.77616 11.4999 9.50002 11.4999C9.22388 11.4999 9.00002 11.2761 9.00002 10.9999V7.49992C9.00002 7.22378 9.22388 6.99992 9.50002 6.99992Z"></path>
<path fill-rule="evenodd" clip-rule="evenodd" d="M14 3.99996C14 3.72382 13.7761 3.49996 13.5 3.49996L11 3.49996V2.83333C11 2.3471 10.8069 1.88079 10.463 1.53697C10.1192 1.19315 9.65292 1 9.16669 1H6.83335C6.34712 1 5.88081 1.19315 5.53699 1.53697C5.19317 1.88079 5.00002 2.3471 5.00002 2.83333V3.49996L2.5 3.49996C2.22386 3.49996 2 3.72382 2 3.99996C2 4.27611 2.22386 4.49996 2.5 4.49996H3.00002V13.1666C3.00002 13.6528 3.19317 14.1191 3.53699 14.4629C3.88081 14.8068 4.34712 14.9999 4.83335 14.9999H11.1667C11.6529 14.9999 12.1192 14.8068 12.463 14.4629C12.8069 14.1191 13 13.6528 13 13.1666V4.49996H13.5C13.7761 4.49996 14 4.27611 14 3.99996ZM6.83335 2C6.61234 2 6.40038 2.0878 6.2441 2.24408C6.08782 2.40036 6.00002 2.61232 6.00002 2.83333V3.49996H10V2.83333C10 2.61232 9.91222 2.40036 9.75594 2.24408C9.59966 2.0878 9.3877 2 9.16669 2H6.83335ZM4.00002 4.49996V13.1666C4.00002 13.3876 4.08782 13.5996 4.2441 13.7558C4.40038 13.9121 4.61234 13.9999 4.83335 13.9999H11.1667C11.3877 13.9999 11.5997 13.9121 11.7559 13.7558C11.9122 13.5996 12 13.3876 12 13.1666V4.49996H4.00002Z"></path>
</svg>
